<svg width="20" height="20" viewBox="0 0 20 20" fill="none" xmlns="http://www.w3.org/2000/svg">
<path fill-rule="evenodd" clip-rule="evenodd" d="M6.41277 11.1592C5.87547 11.1592 5.43896 10.7227 5.43896 10.1854C5.43896 9.64964 5.87547 9.21313 6.41277 9.21313C6.95008 9.21313 7.38658 9.64964 7.38658 10.1854C7.38658 10.7227 6.95008 11.1592 6.41277 11.1592ZM10.1985 11.1592C9.66119 11.1592 9.22468 10.7227 9.22468 10.1854C9.22468 9.64964 9.66119 9.21313 10.1985 9.21313C10.7358 9.21313 11.1723 9.64964 11.1723 10.1854C11.1723 10.7227 10.7358 11.1592 10.1985 11.1592ZM13.0105 10.1854C13.0105 10.7227 13.447 11.1592 13.9843 11.1592C14.5216 11.1592 14.9581 10.7227 14.9581 10.1854C14.9581 9.64964 14.5216 9.21313 13.9843 9.21313C13.447 9.21313 13.0105 9.64964 13.0105 10.1854Z" fill="url(#paint0_linear_8119_5)"/>
<path fill-rule="evenodd" clip-rule="evenodd" d="M10.0167 1.66675C5.17508 1.66675 1.66675 5.62185 1.66675 10.0126C1.66675 11.4147 2.07508 12.8577 2.79175 14.1763C2.92508 14.3942 2.94175 14.6688 2.85008 14.9283L2.29175 16.7978C2.16675 17.2485 2.55008 17.5815 2.97508 17.4479L4.65841 16.948C5.11675 16.7978 5.47508 16.9889 5.90008 17.2485C7.11675 17.9654 8.63341 18.3334 10.0001 18.3334C14.1334 18.3334 18.3334 15.137 18.3334 9.98756C18.3334 5.54673 14.7501 1.66675 10.0167 1.66675Z" stroke="url(#paint1_linear_8119_5)" stroke-width="1.5" stroke-linecap="round" stroke-linejoin="round"/>
<defs>
<linearGradient id="paint0_linear_8119_5" x1="10.1985" y1="9.21313" x2="10.1985" y2="11.1592" gradientUnits="userSpaceOnUse">
<stop stop-color="#B621E7" stop-opacity="0.3"/>
<stop offset="1" stop-color="#5E1AF3" stop-opacity="0.3"/>
</linearGradient>
<linearGradient id="paint1_linear_8119_5" x1="10.0001" y1="1.66675" x2="10.0001" y2="18.3334" gradientUnits="userSpaceOnUse">
<stop stop-color="#B621E7" stop-opacity="0.64"/>
<stop offset="1" stop-color="#5E1AF3" stop-opacity="0.76"/>
</linearGradient>
</defs>
</svg>
