<svg width="16" height="16" viewBox="0 0 16 16" fill="none" xmlns="http://www.w3.org/2000/svg">
<path d="M11.7086 0.6698L9.85713 0.666748C7.77703 0.666748 6.43277 2.08347 6.43277 4.27623V5.94045H4.57116C4.4103 5.94045 4.28003 6.07442 4.28003 6.23966V8.65092C4.28003 8.81617 4.41044 8.94998 4.57116 8.94998H6.43277V15.0344C6.43277 15.1996 6.56304 15.3334 6.7239 15.3334H9.15277C9.31364 15.3334 9.4439 15.1994 9.4439 15.0344V8.94998H11.6206C11.7814 8.94998 11.9117 8.81617 11.9117 8.65092L11.9126 6.23966C11.9126 6.16032 11.8818 6.08433 11.8273 6.02818C11.7728 5.97203 11.6985 5.94045 11.6213 5.94045H9.4439V4.52967C9.4439 3.8516 9.6012 3.50737 10.4611 3.50737L11.7083 3.50691C11.8691 3.50691 11.9993 3.37295 11.9993 3.20785V0.968861C11.9993 0.80392 11.8692 0.670105 11.7086 0.6698Z" fill="white"/>
</svg>
