<svg width="16" height="16" viewBox="0 0 16 16" fill="none" xmlns="http://www.w3.org/2000/svg">
<path d="M14.6535 5.25329C14.6223 4.54484 14.5077 4.05778 14.3436 3.63574C14.1743 3.18776 13.9139 2.78668 13.5726 2.45326C13.2392 2.11465 12.8355 1.85154 12.3927 1.68488C11.9682 1.52077 11.4837 1.4062 10.7752 1.37497C10.0615 1.34109 9.8349 1.33325 8.02465 1.33325C6.2144 1.33325 5.98782 1.34109 5.27672 1.37232C4.56827 1.40356 4.08122 1.51822 3.65928 1.68224C3.2112 1.85154 2.81012 2.11201 2.4767 2.45326C2.13809 2.78668 1.87508 3.19041 1.70832 3.6332C1.54421 4.05778 1.42964 4.54219 1.3984 5.25064C1.36452 5.96438 1.35669 6.19097 1.35669 8.00122C1.35669 9.81147 1.36452 10.0381 1.39576 10.7492C1.427 11.4576 1.54166 11.9447 1.70578 12.3667C1.87508 12.8147 2.13809 13.2158 2.4767 13.5492C2.81012 13.8878 3.21384 14.1509 3.65663 14.3176C4.08122 14.4817 4.56562 14.5962 5.27418 14.6275C5.98517 14.6588 6.21186 14.6665 8.02211 14.6665C9.83235 14.6665 10.0589 14.6588 10.77 14.6275C11.4785 14.5962 11.9655 14.4817 12.3875 14.3176C13.2835 13.9711 13.992 13.2627 14.3384 12.3667C14.5024 11.9421 14.6171 11.4576 14.6483 10.7492C14.6796 10.0381 14.6874 9.81147 14.6874 8.00122C14.6874 6.19097 14.6848 5.96438 14.6535 5.25329ZM13.4528 10.6971C13.4242 11.3482 13.3148 11.6999 13.2236 11.9343C12.9996 12.5151 12.5386 12.9761 11.9577 13.2002C11.7233 13.2914 11.3691 13.4007 10.7205 13.4293C10.0172 13.4607 9.80631 13.4684 8.02729 13.4684C6.24828 13.4684 6.03472 13.4607 5.334 13.4293C4.68283 13.4007 4.3312 13.2914 4.09678 13.2002C3.80773 13.0934 3.54461 12.9241 3.33105 12.7027C3.10965 12.4865 2.94035 12.226 2.83352 11.9369C2.74235 11.7025 2.63298 11.3482 2.60439 10.6997C2.57305 9.99644 2.56532 9.78542 2.56532 8.00641C2.56532 6.2274 2.57305 6.01383 2.60439 5.31322C2.63298 4.66205 2.74235 4.31042 2.83352 4.076C2.94035 3.78684 3.10965 3.52382 3.3337 3.31016C3.5498 3.08876 3.81027 2.91946 4.09943 2.81273C4.33385 2.72156 4.68813 2.61219 5.33665 2.5835C6.03991 2.55226 6.25093 2.54443 8.02984 2.54443C9.81149 2.54443 10.0224 2.55226 10.7231 2.5835C11.3743 2.61219 11.7259 2.72156 11.9603 2.81273C12.2494 2.91946 12.5125 3.08876 12.7261 3.31016C12.9475 3.52637 13.1168 3.78684 13.2236 4.076C13.3148 4.31042 13.4242 4.66459 13.4528 5.31322C13.4841 6.01648 13.4919 6.2274 13.4919 8.00641C13.4919 9.78542 13.4841 9.9938 13.4528 10.6971Z" fill="white"/>
<path d="M8.02465 4.57607C6.13371 4.57607 4.5995 6.11019 4.5995 8.00123C4.5995 9.89226 6.13371 11.4264 8.02465 11.4264C9.91568 11.4264 11.4498 9.89226 11.4498 8.00123C11.4498 6.11019 9.91568 4.57607 8.02465 4.57607ZM8.02465 10.223C6.79791 10.223 5.80284 9.22807 5.80284 8.00123C5.80284 6.77438 6.79791 5.77941 8.02465 5.77941C9.25149 5.77941 10.2465 6.77438 10.2465 8.00123C10.2465 9.22807 9.25149 10.223 8.02465 10.223Z" fill="white"/>
<path d="M12.385 4.44065C12.385 4.88223 12.0269 5.24027 11.5852 5.24027C11.1437 5.24027 10.7856 4.88223 10.7856 4.44065C10.7856 3.99898 11.1437 3.64103 11.5852 3.64103C12.0269 3.64103 12.385 3.99898 12.385 4.44065Z" fill="white"/>
</svg>
