<svg width="16" height="16" viewBox="0 0 16 16" fill="none" xmlns="http://www.w3.org/2000/svg">
<path d="M12 5.33325C13.1046 5.33325 14 4.43782 14 3.33325C14 2.22868 13.1046 1.33325 12 1.33325C10.8954 1.33325 10 2.22868 10 3.33325C10 4.43782 10.8954 5.33325 12 5.33325Z" stroke="url(#paint0_linear_918_204)" stroke-width="2" stroke-linecap="round" stroke-linejoin="round"/>
<path d="M4 10C5.10457 10 6 9.10457 6 8C6 6.89543 5.10457 6 4 6C2.89543 6 2 6.89543 2 8C2 9.10457 2.89543 10 4 10Z" stroke="url(#paint1_linear_918_204)" stroke-width="2" stroke-linecap="round" stroke-linejoin="round"/>
<path d="M12 14.6667C13.1046 14.6667 14 13.7713 14 12.6667C14 11.5622 13.1046 10.6667 12 10.6667C10.8954 10.6667 10 11.5622 10 12.6667C10 13.7713 10.8954 14.6667 12 14.6667Z" stroke="url(#paint2_linear_918_204)" stroke-width="2" stroke-linecap="round" stroke-linejoin="round"/>
<path d="M5.72656 9.00659L10.2799 11.6599" stroke="url(#paint3_linear_918_204)" stroke-width="2" stroke-linecap="round" stroke-linejoin="round"/>
<path d="M10.2732 4.34009L5.72656 6.99342" stroke="url(#paint4_linear_918_204)" stroke-width="2" stroke-linecap="round" stroke-linejoin="round"/>
<defs>
<linearGradient id="paint0_linear_918_204" x1="12" y1="1.33325" x2="12" y2="5.33325" gradientUnits="userSpaceOnUse">
<stop stop-color="#B521E8" stop-opacity="0.69"/>
<stop offset="1" stop-color="#661BF2" stop-opacity="0.69"/>
</linearGradient>
<linearGradient id="paint1_linear_918_204" x1="4" y1="6" x2="4" y2="10" gradientUnits="userSpaceOnUse">
<stop stop-color="#B521E8" stop-opacity="0.69"/>
<stop offset="1" stop-color="#661BF2" stop-opacity="0.69"/>
</linearGradient>
<linearGradient id="paint2_linear_918_204" x1="12" y1="10.6667" x2="12" y2="14.6667" gradientUnits="userSpaceOnUse">
<stop stop-color="#B521E8" stop-opacity="0.69"/>
<stop offset="1" stop-color="#661BF2" stop-opacity="0.69"/>
</linearGradient>
<linearGradient id="paint3_linear_918_204" x1="8.00323" y1="9.00659" x2="8.00323" y2="11.6599" gradientUnits="userSpaceOnUse">
<stop stop-color="#B521E8" stop-opacity="0.69"/>
<stop offset="1" stop-color="#661BF2" stop-opacity="0.69"/>
</linearGradient>
<linearGradient id="paint4_linear_918_204" x1="7.9999" y1="4.34009" x2="7.9999" y2="6.99342" gradientUnits="userSpaceOnUse">
<stop stop-color="#B521E8" stop-opacity="0.69"/>
<stop offset="1" stop-color="#661BF2" stop-opacity="0.69"/>
</linearGradient>
</defs>
</svg>
